<svg xmlns="http://www.w3.org/2000/svg" viewBox="-50 -650 567 1000"><title>U+0414 — Open el body with a low brushed base and two falling feet.</title><g transform="scale(1,-1)"><path d="M325 249Q335 224 340 207Q351 174 354.0 145.0Q357 116 367 88Q370 78 373.5 69.5Q377 61 380 52Q383 42 386 32Q396 32 406 32Q406 35 408 39Q409 43 414 44Q417 44 421.0 42.5Q425 41 429 39Q433 37 436.0 35.0Q439 33 442 31Q445 31 447 30Q449 29 450.0 26.5Q451 24 449 18Q450 4 447.5 -9.0Q445 -22 442 -35Q440 -42 437.0 -46.0Q434 -50 431.5 -53.0Q429 -56 426.0 -59.5Q423 -63 421 -67Q417 -74 414.5 -80.5Q412 -87 406 -90Q408 -73 410.0 -60.5Q412 -48 413 -35Q413 -23 412.0 -13.0Q411 -3 410 4Q405 4 403.0 7.0Q401 10 401 15Q401 15 401 15Q397 13 394 12Q392 12 390 11Q391 2 391 -7Q386 0 382 8Q380 8 379 7Q372 4 363 3Q322 -1 277.0 -4.0Q232 -7 190.5 -9.0Q149 -11 114 -12Q91 -13 73 -13Q71 -25 68 -38Q66 -45 63.0 -49.5Q60 -54 57.5 -57.0Q55 -60 52.0 -63.0Q49 -66 47 -71Q43 -78 40.5 -84.5Q38 -91 32 -94Q34 -77 36.0 -64.5Q38 -52 39 -39Q39 -26 38 -16Q38 -12 37 -8Q33 -5 30 -2Q26 2 24 5Q24 6 24 7Q25 9 27 10Q27 11 27 12Q27 17 28.5 22.0Q30 27 32 29Q32 33 33.5 37.0Q35 41 40 42Q43 42 47 41Q50 39 53 37Q71 120 93 207Q117 299 149 380Q151 387 158.0 392.0Q165 397 169 403Q175 413 182.0 423.0Q189 433 198 441Q204 446 208.0 450.0Q212 454 217 453Q221 452 224.5 447.5Q228 443 233 435Q235 431 239.0 427.0Q243 423 246 419Q261 394 275.5 364.0Q290 334 302.5 304.5Q315 275 325 249ZM211 27Q284 31 369 32Q354 58 340 86Q314 136 289.0 187.0Q264 238 241.0 286.5Q218 335 198 375Q186 339 172.5 291.5Q159 244 144.5 195.0Q130 146 115.0 101.5Q100 57 85 26Q85 21 82 19Q140 23 211 27Z"/></g></svg>
