<svg xmlns="http://www.w3.org/2000/svg" viewBox="-50 -650 550 1000"><title>U+041D — Unchanged upstream H outline and advance.</title><g transform="scale(1,-1)"><path d="M356 435Q361 440 363 445L371 453Q372 454 375 456Q378 458 380 457Q381 456 383 454Q385 449 387 441L390 411Q394 366 395.5 316.0Q397 266 399.0 215.0Q401 164 406.0 114.5Q411 65 424 20Q426 16 425 13Q424 10 424 10Q423 10 423 11Q422 14 417.5 16.5Q413 19 408 25Q398 33 390.5 38.0Q383 43 377 52Q360 86 352.0 136.5Q344 187 342 244Q294 230 233.5 208.0Q173 186 115 172Q117 152 118.5 131.0Q120 110 124 89Q126 79 125.5 69.0Q125 59 127 45Q129 34 132.0 21.5Q135 9 135 3Q97 54 76.5 110.5Q56 167 48.0 226.0Q40 285 42.0 345.0Q44 405 50 462Q50 466 53.0 467.5Q56 469 58.0 471.0Q60 473 60.0 474.0Q60 475 62 477Q68 485 72.0 483.0Q76 481 79 476Q84 467 88.5 457.5Q93 448 98 439Q103 428 105.5 418.0Q108 408 101 394Q106 363 107.5 324.0Q109 285 111 240Q140 247 169.0 258.0Q198 269 226.5 280.0Q255 291 283.5 299.5Q312 308 341 310Q342 339 344.0 368.0Q346 397 349 424Q350 430 356 435Z"/></g></svg>
