<svg xmlns="http://www.w3.org/2000/svg" viewBox="-50 -650 562 1000"><title>U+0426 — Original U bowl, drawn to cap height, with a short curved descender.</title><g transform="scale(1,-1)"><path d="M164 432Q164 432 165 431Q149 390 135.5 346.5Q122 303 113.0 259.5Q104 216 99.5 173.0Q95 130 97 91Q95 85 93.5 81.5Q92 78 92 76Q93 70 95.0 67.0Q97 64 97 56Q121 39 155.0 37.0Q189 35 223.5 45.5Q258 56 284 74Q321 99 341.5 133.0Q362 167 372.0 205.5Q382 244 384.0 285.0Q386 326 386 364Q386 368 388.5 370.5Q391 373 391.0 376.0Q391 379 392 382Q393 384 393.0 387.5Q393 391 394 393Q394 395 399 397Q401 399 402 398Q403 397 403 395Q409 348 411.0 296.5Q413 245 403.0 194.5Q393 144 370 99Q359 79 345 62Q348 61 350 59Q354 57 357.0 54.0Q360 51 363 50Q366 50 368 48Q370 46 371.0 43.0Q372 40 370 33Q371 14 368.5 -2.5Q366 -19 363 -36Q361 -46 358.0 -51.5Q355 -57 352.5 -60.5Q350 -64 347.0 -68.5Q344 -73 342 -78Q338 -88 335.5 -96.0Q333 -104 327 -108Q329 -86 331.0 -70.0Q333 -54 334 -37Q334 -21 333.0 -8.0Q332 5 331 13Q326 13 324.0 17.5Q322 22 322 28Q322 33 323 38Q313 29 301 20Q272 -1 230.0 -19.5Q188 -38 146 -46Q122 -49 113.0 -41.0Q104 -33 93 -27Q79 -20 74.5 -16.0Q70 -12 63 2Q39 53 37.0 109.0Q35 165 46.0 219.5Q57 274 76.5 324.0Q96 374 114 413Q119 421 121.5 421.0Q124 421 130 425Q134 427 141.5 433.0Q149 439 153 438Q155 438 159.5 437.5Q164 437 166 436Q167 435 167 435Q167 434 166 434Q164 433 164 432Z"/></g></svg>
