<svg xmlns="http://www.w3.org/2000/svg" viewBox="-50 -650 667 1000"><title>U+042B — Soft-sign body and a detached full-weight brush stem with breathing room.</title><g transform="scale(1,-1)"><path d="M84 446Q86 443 89 440Q91 438 93.0 437.0Q95 436 95 433Q95 405 98.5 374.5Q102 344 105.5 313.0Q109 282 112.5 251.5Q116 221 116 194Q124 203 136.0 214.5Q148 226 164.0 236.0Q180 246 199.0 253.0Q218 260 241 261Q250 267 257 267Q269 268 280.5 261.0Q292 254 304 245Q320 234 331.0 217.5Q342 201 345.5 184.0Q349 167 345.0 151.0Q341 135 325 123Q309 89 280.5 66.0Q252 43 220 31L146 4Q139 1 132.0 -3.0Q125 -7 118 -9Q112 -11 109.0 -8.0Q106 -5 100 -3Q85 1 81 10Q77 18 76.0 23.5Q75 29 73 39Q59 83 53.5 136.0Q48 189 47.5 242.0Q47 295 48.5 344.0Q50 393 53 429Q53 441 55.0 444.5Q57 448 63 450Q65 450 69.0 451.0Q73 452 79 450Q82 450 84 446ZM462 427Q466 426 471 422Q483 373 490.0 323.5Q497 274 503.0 225.0Q509 176 515.5 127.0Q522 78 533 29Q531 17 530.0 9.5Q529 2 525 0Q520 -2 515.5 -5.5Q511 -9 506 -11Q504 -12 502.0 -14.0Q500 -16 497.5 -17.0Q495 -18 493.0 -17.0Q491 -16 488 -12Q469 40 453.5 93.0Q438 146 428.5 199.5Q419 253 416.5 308.5Q414 364 420 422Q420 435 429 439Q433 441 439.5 436.5Q446 432 451 430Q458 427 462 427ZM300 139Q304 153 304 177Q304 182 297.0 190.5Q290 199 281.0 207.5Q272 216 261.0 222.0Q250 228 241 230Q228 227 207.0 217.0Q186 207 172 194Q137 162 134.5 127.0Q132 92 148 58Q159 61 176.5 67.0Q194 73 214.0 81.5Q234 90 252.5 98.5Q271 107 283 114Q296 126 300 139Z"/></g></svg>
