<svg xmlns="http://www.w3.org/2000/svg" viewBox="-50 -650 525 1000"><title>U+042D — Original C reversed, with a tongue cut from the E bar that tapers into the counter.</title><g transform="scale(1,-1)"><path d="M72 390Q72 391 73.0 393.0Q74 395 73.5 397.0Q73 399 74 401Q79 410 84 415L94 425Q109 440 121 445Q170 456 205 443Q257 425 294.5 379.0Q332 333 359 275Q372 249 376.0 219.0Q380 189 377.5 158.5Q375 128 365.5 100.5Q356 73 342 54Q311 11 267 -4Q252 -9 236.0 -8.0Q220 -7 204 -7Q193 -5 185.0 -4.5Q177 -4 166 0Q116 17 81 55Q76 60 71.0 68.5Q66 77 61 82Q53 90 49.0 96.0Q45 102 40 110Q65 93 94.0 77.0Q123 61 155 54Q199 45 233.5 56.5Q268 68 289.5 94.0Q311 120 317 159Q318 165 318 171Q310 172 301 172Q277 173 252.5 174.5Q228 176 205.0 177.0Q182 178 163 179Q157 181 149.0 184.0Q141 187 136 191L123 213Q123 217 127.0 218.5Q131 220 139 222Q147 222 155.0 226.5Q163 231 172 231Q214 230 261 227Q289 225 313 222Q311 232 308 241Q296 273 278.5 299.0Q261 325 240.5 344.5Q220 364 198.5 377.0Q177 390 157 396Q148 399 138.0 397.0Q128 395 118.0 391.0Q108 387 98.0 382.5Q88 378 78 376Q75 374 72.0 378.0Q69 382 71 386Q72 388 72 390Z"/></g></svg>
