<svg xmlns="http://www.w3.org/2000/svg" viewBox="-50 -650 470 1000"><title>U+044A — Soft-sign bowl with an overhanging brush shoulder cut from the E bar.</title><g transform="scale(1,-1)"><path d="M16 323Q19 325 24 327Q29 327 34.0 331.5Q39 336 44 336Q70 335 99 332Q127 329 150 324V275Q141 276 132 277Q132 274 133 272Q136 261 138.5 250.5Q141 240 141 221Q148 231 157.5 236.5Q167 242 180.0 245.5Q193 249 208.5 251.0Q224 253 243 254Q250 256 256 256Q266 256 275.0 253.5Q284 251 294 248Q307 244 316.0 236.5Q325 229 328.0 210.0Q331 191 327.5 173.0Q324 155 311 142Q298 104 275.0 78.5Q252 53 226 40L166 10Q160 7 154.5 2.5Q149 -2 143 -5Q138 -7 135.5 -3.5Q133 0 128 2Q116 7 113 17Q110 26 109.0 32.0Q108 38 106 49Q95 98 90.5 157.0Q86 216 86 241Q85 264 86 280Q75 281 64 282Q50 283 39 284Q35 286 30.0 289.0Q25 292 22 296L14 318Q14 322 16 323ZM291 161Q294 176 294 202Q294 208 288.5 217.5Q283 227 275.5 232.5Q268 238 259.0 240.0Q250 242 243 243Q232 242 215.0 238.5Q198 235 187 221Q158 186 156.0 147.0Q154 108 167 70Q176 73 190.5 80.0Q205 87 221.0 96.0Q237 105 252.0 114.5Q267 124 277 132Q288 145 291 161Z"/></g></svg>
